<svg width="200" height="200" viewBox="0 0 200 200" xmlns="http://www.w3.org/2000/svg"><path d="M40 60h120M40 100h120M40 140h120M60 40v120m40-120v120m40-120v120" stroke="#CCC" stroke-width="3" stroke-opacity=".6"/><path fill="#CCC" d="m15 80 12.124-7 28 48.497-12.124 7zm28 48.497 13.062 8.625-.938-15.625z"/><path fill="#FF6F61" d="m8 67.876 12.124-7 7 12.124L15 80z"/><path d="M60 140c10-60 20-90 40-20 10 30 30-50 40-10 5 5 10-5 20-2" stroke="#4DD0E1" stroke-width="5" fill="none" stroke-linecap="round"/><circle cx="160" cy="108" r="6" fill="#FF6F61"/></svg>